<?xml version="1.0" encoding="utf-8"?>
<!-- Generator: Adobe Illustrator 18.1.1, SVG Export Plug-In . SVG Version: 6.00 Build 0)  -->
<svg version="1.1" id="Layer_1" xmlns="http://www.w3.org/2000/svg" xmlns:xlink="http://www.w3.org/1999/xlink" x="0px" y="0px"
	 viewBox="0 0 300 300" enable-background="new 0 0 300 300" xml:space="preserve">
<g>
	
		<path fill="#FFFADC" stroke="#F6AD6F" stroke-width="13.7464" stroke-linecap="round" stroke-linejoin="round" stroke-miterlimit="10" d="
		M78.2,181.2c-9.5-19.8-31-36.8-54.3-36.8c-1.6,0-2.8,1.3-2.8,2.8c0,30.7,23.6,55.9,53.5,58.6"/>
	
		<path fill="#FFFADC" stroke="#F6AD6F" stroke-width="13.7464" stroke-linecap="round" stroke-linejoin="round" stroke-miterlimit="10" d="
		M77.7,181.2c9.5-19.8,31-36.8,54.3-36.8c1.6,0,2.8,1.3,2.8,2.8c0,30.7-23.6,55.9-53.5,58.6"/>
	<path fill="#F6AD6F" d="M84.6,282.1H71.8V103.3h12.8V282.1z"/>
	<path fill="#F6AD6F" stroke="#F6AD6F" stroke-width="11.7949" stroke-miterlimit="10" d="M134.3,21.2c0-0.4-0.1-0.7-0.2-1.1
		c0-0.1-0.1-0.3-0.1-0.4c-0.2-0.4-0.4-0.8-0.7-1.1c0,0-0.1-0.1-0.1-0.1c0,0-0.1,0-0.1-0.1c-0.4-0.3-0.8-0.6-1.2-0.8c0,0-0.1,0-0.1,0
		c-0.5-0.2-1-0.3-1.5-0.3l0,0c0,0,0,0,0,0c-1.2,0-2.3,0.5-3.1,1.4l-0.4,0.4c-0.5,0.2-1,0.5-1.4,1l-21.4,21.8L80.5,18.4
		c-1.6-1.6-4.4-1.6-6,0L52,41L29.3,18.4c0,0-0.1,0-0.1-0.1c-0.4-0.4-0.8-0.6-1.3-0.8c0,0-0.1,0-0.1,0c-0.5-0.2-1-0.3-1.5-0.3
		c0,0,0,0,0,0l0,0c-2.3,0-4.2,1.9-4.2,4.2v51.2c0,15.3,6.2,29.2,16.1,39.3l2.6,2.4c9,8,20.5,13.2,33.2,14.2h8.4
		c28.9-2.2,51.8-26.4,51.8-55.9V21.5C134.3,21.4,134.3,21.3,134.3,21.2z"/>
	<polygon fill="#F6AD6F" stroke="#F6AD6F" stroke-width="11.7949" stroke-miterlimit="10" points="77.6,27.8 93.7,43.8 93.3,44.3 
		78.2,59.4 62.1,43.3 	"/>
	<path fill="#F6AD6F" stroke="#F6AD6F" stroke-width="11.7949" stroke-miterlimit="10" d="M30.1,71.9V34.7l19,19l19,19l-27.2,27.7
		C34.2,92.8,30.1,82.8,30.1,71.9z"/>
	<path fill="#F6AD6F" stroke="#F6AD6F" stroke-width="11.7949" stroke-miterlimit="10" d="M124.3,74.6c0,25.6-20.8,46.4-46.4,46.4
		c-10.9,0-20.9-3.8-28.8-10.1l53.3-54.2l21.9-21.9V74.6z"/>
	<path fill="#FFFADC" stroke="#FFFADC" stroke-width="1.6174" stroke-miterlimit="10" d="M51.1,111.1c7.6,6.4,18.5,9.9,28.9,9.9
		c24.4,0,44.3-21.1,44.3-47.1V34.7l-20.4,22.1L51.1,111.1z"/>
	<path fill="#FFFADC" stroke="#FFFADC" stroke-width="1.6423" stroke-miterlimit="10" d="M51.1,53.7l-19-19v37.2
		c0,10.9,2.3,18.7,9.1,26.4l27.1-27.3L51.1,53.7z"/>
	<polygon fill="#FFFADC" stroke="#FFFADC" stroke-width="1.6423" stroke-miterlimit="10" points="93.6,44.3 94.1,43.8 78,27.8 
		62.5,43.3 78.6,59.4 	"/>
	<path fill="#F6AD6F" d="M56.1,275.5c-5.2,4.9-11.2,7.3-18.2,7.3c-6.9,0-12.7-2.1-17.2-6.4c-4.5-4.3-6.8-10-6.8-17.2
		c0-7.2,2.3-12.9,6.9-17.2s10.1-6.4,16.4-6.4s11.6,1.9,16,5.7c4.4,3.8,6.6,9,6.6,15.6v6.8H26.5c0.4,2.5,1.7,4.5,3.9,6.1
		c2.2,1.6,4.7,2.4,7.5,2.4c4.5,0,8.2-1.5,11.1-4.5L56.1,275.5z M43.8,248.4c-1.8-1.5-3.9-2.2-6.4-2.2c-2.5,0-4.8,0.8-6.9,2.3
		c-2.1,1.5-3.3,3.6-3.7,6.2h20.1C46.6,251.9,45.6,249.9,43.8,248.4z"/>
	<path fill="#F6AD6F" d="M138.4,282.1h-12v-5.5c-3.3,4.1-7.4,6.2-12.2,6.2c-4.8,0-8.9-1.4-12.2-4.2c-3.3-2.8-4.9-6.5-4.9-11.2
		s1.7-8.2,5.1-10.5c3.4-2.3,8.1-3.5,14-3.5h9.5v-0.3c0-4.9-2.6-7.3-7.7-7.3c-2.2,0-4.6,0.4-7,1.3c-2.5,0.9-4.5,2-6.3,3.3l-5.7-8.2
		c6-4.4,12.9-6.5,20.6-6.5c5.6,0,10.1,1.4,13.6,4.2c3.5,2.8,5.3,7.2,5.3,13.2V282.1z M125.5,264.7v-2.2h-8c-5.1,0-7.7,1.6-7.7,4.8
		c0,1.6,0.6,2.9,1.8,3.8c1.2,0.9,3,1.3,5.2,1.3c2.3,0,4.3-0.7,6-2.1C124.7,268.9,125.5,267,125.5,264.7z"/>
	<path fill="#F6AD6F" d="M162.8,256.6v25.5H150v-45.8h12.8v5.1c3.9-3.9,8.2-5.9,13-5.9s8.9,1.7,12.1,5.1c3.3,3.4,4.9,7.9,4.9,13.6
		v27.8H180v-25.9c0-7-2.6-10.5-7.7-10.5c-2.6,0-4.8,0.9-6.7,2.8C163.7,250.3,162.8,253.1,162.8,256.6z"/>
	<path fill="#F6AD6F" d="M250.1,259.3c0,6.6-2.3,12.2-6.9,16.8c-4.6,4.5-10.4,6.8-17.3,6.8c-6.9,0-12.7-2.3-17.3-6.8
		c-4.6-4.5-6.9-10.1-6.9-16.8c0-6.6,2.3-12.2,6.9-16.8c4.6-4.6,10.4-6.8,17.3-6.8c6.9,0,12.7,2.3,17.3,6.8
		C247.8,247,250.1,252.6,250.1,259.3z M214.6,259.3c0,3.7,1.1,6.8,3.2,9.1c2.1,2.4,4.8,3.5,8.2,3.5s6-1.2,8.2-3.5
		c2.1-2.4,3.2-5.4,3.2-9.1c0-3.7-1.1-6.8-3.2-9.2c-2.1-2.4-4.8-3.6-8.2-3.6s-6,1.2-8.2,3.6C215.6,252.5,214.6,255.5,214.6,259.3z"/>
	<path fill="#F6AD6F" d="M283.6,247.6c-3.8,0-6.6,1.3-8.5,4c-1.9,2.7-2.8,6.3-2.8,10.7v19.8h-12.8v-45.8h12.8v6
		c1.6-1.9,3.7-3.5,6.2-4.8c2.5-1.3,5-2,7.5-2l0.1,12H283.6z"/>
</g>
</svg>
